<?xml version="1.0" encoding="utf-8"?>
<!-- Generator: Adobe Illustrator 16.0.0, SVG Export Plug-In . SVG Version: 6.00 Build 0)  -->
<!DOCTYPE svg PUBLIC "-//W3C//DTD SVG 1.1//EN" "http://www.w3.org/Graphics/SVG/1.1/DTD/svg11.dtd">
<svg version="1.1" id="Layer_1" xmlns="http://www.w3.org/2000/svg" xmlns:xlink="http://www.w3.org/1999/xlink" x="0px" y="0px"
	 width="64px" height="64px" viewBox="0 0 64 64" enable-background="new 0 0 64 64" xml:space="preserve">
<path d="M32,0c17.673,0,32,14.327,32,32S49.673,64,32,64C14.327,64,0,49.673,0,32S14.327,0,32,0z M42.666,35.999
	c2.209,0,3.999-1.79,3.999-3.999s-1.79-4-3.999-4c-0.439,0-3.234,0-6.668,0c0-3.432,0-6.229,0-6.667c0-2.209-1.789-4-3.999-4
	c-2.209,0-4,1.791-4,4c0,0.438,0,3.235,0,6.667c-3.432,0-6.229,0-6.667,0c-2.209,0-4,1.791-4,4s1.791,3.999,4,3.999
	c0.438,0,3.235,0,6.667,0c0,3.434,0,6.229,0,6.668c0,2.209,1.791,3.999,4,3.999c2.209,0,3.999-1.79,3.999-3.999
	c0-0.438,0-3.234,0-6.668C39.432,35.999,42.227,35.999,42.666,35.999z"/>
</svg>
