<?xml version="1.0" encoding="utf-8"?>
<!-- Generator: Adobe Illustrator 16.0.0, SVG Export Plug-In . SVG Version: 6.00 Build 0)  -->
<!DOCTYPE svg PUBLIC "-//W3C//DTD SVG 1.1//EN" "http://www.w3.org/Graphics/SVG/1.1/DTD/svg11.dtd">
<svg version="1.1" id="Layer_1" xmlns="http://www.w3.org/2000/svg" xmlns:xlink="http://www.w3.org/1999/xlink" x="0px" y="0px"
	 width="64px" height="64px" viewBox="0 0 64 64" enable-background="new 0 0 64 64" xml:space="preserve">
<g>
	<path fill="#FAFAFA" d="M43.313,26.343c1.563-1.562,1.563-4.095,0-5.657c-1.562-1.562-4.094-1.562-5.656,0
		c-0.311,0.311-3.23,3.231-5.657,5.657c-2.426-2.426-5.347-5.346-5.657-5.657c-1.561-1.562-4.095-1.563-5.657,0
		c-1.563,1.562-1.562,4.094,0,5.657c0.309,0.31,3.23,3.23,5.657,5.657c-2.426,2.426-5.346,5.346-5.657,5.657
		c-1.562,1.563-1.562,4.096,0,5.657c1.562,1.563,4.094,1.562,5.657,0c0.309-0.311,3.231-3.231,5.657-5.657
		c2.427,2.425,5.347,5.347,5.657,5.655c1.563,1.562,4.096,1.563,5.656,0c1.563-1.563,1.563-4.094,0-5.655
		c-0.31-0.312-3.23-3.23-5.656-5.657C40.082,29.573,43.004,26.653,43.313,26.343z"/>
</g>
<g>
	<path fill="#FAFAFA" d="M32,3c15.99,0,29,13.009,29,29c0,15.99-13.01,29-29,29C16.009,61,3,47.99,3,32C3,16.009,16.009,3,32,3
		 M32,0C14.327,0,0,14.327,0,32c0,17.673,14.327,32,32,32c17.674,0,32-14.327,32-32C64,14.327,49.674,0,32,0L32,0z"/>
</g>
</svg>
