<?xml version="1.0" encoding="utf-8"?>
<!-- Generator: Adobe Illustrator 16.0.0, SVG Export Plug-In . SVG Version: 6.00 Build 0)  -->
<!DOCTYPE svg PUBLIC "-//W3C//DTD SVG 1.1//EN" "http://www.w3.org/Graphics/SVG/1.1/DTD/svg11.dtd">
<svg version="1.1" id="Layer_1" xmlns="http://www.w3.org/2000/svg" xmlns:xlink="http://www.w3.org/1999/xlink" x="0px" y="0px"
	 width="64px" height="64px" viewBox="0 0 64 64" enable-background="new 0 0 64 64" xml:space="preserve">
<g>
	<path fill="#00DBDE" d="M59.184,18.405c3.752-3.749,3.758-9.836,0-13.59c-3.752-3.752-9.836-3.752-13.593,0
		c-0.745,0.746-7.762,7.762-13.592,13.59C26.17,12.577,19.152,5.561,18.406,4.815c-3.75-3.752-9.838-3.755-13.591,0
		c-3.756,3.753-3.752,9.835,0,13.59C5.558,19.151,12.577,26.167,18.406,32C12.577,37.828,5.562,44.845,4.815,45.591
		c-3.752,3.753-3.752,9.843,0,13.597c3.753,3.752,9.837,3.75,13.591,0c0.743-0.748,7.764-7.769,13.593-13.597
		c5.83,5.828,12.847,12.849,13.592,13.591c3.755,3.75,9.841,3.756,13.593,0c3.758-3.755,3.752-9.838,0-13.591
		C58.439,44.845,51.42,37.828,45.591,32C51.42,26.167,58.439,19.151,59.184,18.405z"/>
</g>
</svg>
