<?xml version="1.0" encoding="utf-8"?>
<!-- Generator: Adobe Illustrator 16.0.0, SVG Export Plug-In . SVG Version: 6.00 Build 0)  -->
<!DOCTYPE svg PUBLIC "-//W3C//DTD SVG 1.1//EN" "http://www.w3.org/Graphics/SVG/1.1/DTD/svg11.dtd">
<svg version="1.1" id="Layer_1" xmlns="http://www.w3.org/2000/svg" xmlns:xlink="http://www.w3.org/1999/xlink" x="0px" y="0px"
	 width="64px" height="64px" viewBox="0 0 64 64" enable-background="new 0 0 64 64" xml:space="preserve">
<g>
	<path fill="#FFFFFF" d="M44.173,20.421c-1.854-1.202-4.327-0.671-5.528,1.181l-9.514,14.682l-4.129-4.693
		c-1.458-1.657-3.987-1.818-5.644-0.361c-1.658,1.459-1.82,3.988-0.361,5.646l7.617,8.656c0.762,0.864,1.859,1.356,3.003,1.356
		c0.097,0,0.195-0.004,0.293-0.012c1.25-0.092,2.383-0.762,3.064-1.813l12.381-19.112C46.557,24.098,46.029,21.622,44.173,20.421z"
		/>
</g>
<g>
	<path fill="#FAFAFA" d="M32,3c15.99,0,29,13.009,29,29c0,15.99-13.01,29-29,29C16.009,61,3,47.99,3,32C3,16.009,16.009,3,32,3
		 M32,0C14.327,0,0,14.327,0,32c0,17.673,14.327,32,32,32c17.674,0,32-14.327,32-32C64,14.327,49.674,0,32,0L32,0z"/>
</g>
</svg>
