<?xml version="1.0" encoding="utf-8"?>
<!-- Generator: Adobe Illustrator 16.0.0, SVG Export Plug-In . SVG Version: 6.00 Build 0)  -->
<!DOCTYPE svg PUBLIC "-//W3C//DTD SVG 1.1//EN" "http://www.w3.org/Graphics/SVG/1.1/DTD/svg11.dtd">
<svg version="1.1" id="Layer_1" xmlns="http://www.w3.org/2000/svg" xmlns:xlink="http://www.w3.org/1999/xlink" x="0px" y="0px"
	 width="64px" height="64px" viewBox="0 0 64 64" enable-background="new 0 0 64 64" xml:space="preserve">
<path d="M32,0c17.673,0,32,14.327,32,32c0,17.672-14.327,32-32,32C14.327,64,0,49.672,0,32C0,14.327,14.327,0,32,0z M45.355,25.952
	c1.201-1.854,0.674-4.33-1.182-5.531c-1.854-1.202-4.328-0.671-5.529,1.181l-9.513,14.682l-4.129-4.693
	c-1.458-1.657-3.987-1.818-5.644-0.361c-1.658,1.46-1.82,3.988-0.361,5.646l7.617,8.656c0.762,0.865,1.859,1.357,3.003,1.357
	c0.097,0,0.195-0.004,0.293-0.012c1.25-0.092,2.383-0.762,3.064-1.813L45.355,25.952z"/>
</svg>
