<?xml version="1.0" encoding="utf-8"?>
<!-- Generator: Adobe Illustrator 16.0.0, SVG Export Plug-In . SVG Version: 6.00 Build 0)  -->
<!DOCTYPE svg PUBLIC "-//W3C//DTD SVG 1.1//EN" "http://www.w3.org/Graphics/SVG/1.1/DTD/svg11.dtd">
<svg version="1.1" id="Layer_1" xmlns="http://www.w3.org/2000/svg" xmlns:xlink="http://www.w3.org/1999/xlink" x="0px" y="0px"
	 width="64px" height="64px" viewBox="0 0 64 64" enable-background="new 0 0 64 64" xml:space="preserve">
<g>
	<path fill="#FC00FF" d="M32,3c15.99,0,29,13.009,29,29c0,15.99-13.01,29-29,29C16.009,61,3,47.99,3,32C3,16.009,16.009,3,32,3
		 M32,0C14.327,0,0,14.327,0,32c0,17.673,14.327,32,32,32c17.674,0,32-14.327,32-32C64,14.327,49.674,0,32,0L32,0z"/>
</g>
<path fill="#FC00FF" d="M28.833,13.5c-2.183,0-3.958,1.775-3.958,3.958v2.375h-7.917c-0.874,0-1.583,0.709-1.583,1.583
	c0,0.875,0.709,1.583,1.583,1.583h1.67l1.333,24.013c0.141,2.517,2.223,4.487,4.742,4.487h14.594c2.519,0,4.601-1.971,4.742-4.487
	L45.372,23h1.67c0.874,0,1.583-0.709,1.583-1.583c0-0.874-0.709-1.583-1.583-1.583h-7.917v-2.375c0-2.183-1.776-3.958-3.958-3.958
	H28.833z M28.833,16.667h6.333c0.437,0,0.791,0.355,0.791,0.792v2.375h-7.917v-2.375C28.042,17.022,28.396,16.667,28.833,16.667z
	 M21.798,23h20.404l-1.325,23.837c-0.047,0.839-0.74,1.496-1.58,1.496H24.703c-0.839,0-1.533-0.656-1.58-1.495L21.798,23z
	 M32,26.365c-0.766,0-1.385,0.621-1.385,1.385v15.833c0,0.766,0.619,1.386,1.385,1.386s1.385-0.62,1.385-1.386V27.75
	C33.385,26.985,32.766,26.365,32,26.365z M26.175,26.366c-0.764,0.027-1.362,0.667-1.336,1.432l0.552,15.901
	c0.026,0.748,0.641,1.338,1.384,1.338c0.017,0,0.033,0,0.049,0c0.764-0.027,1.362-0.669,1.336-1.434l-0.552-15.901
	C27.582,26.938,26.938,26.348,26.175,26.366z M37.823,26.366c-0.766-0.021-1.405,0.572-1.432,1.336l-0.553,15.901
	c-0.026,0.765,0.571,1.406,1.336,1.434c0.018,0.001,0.033,0,0.05,0c0.743,0,1.358-0.59,1.384-1.338l0.552-15.901
	C39.188,27.033,38.588,26.393,37.823,26.366z"/>
</svg>
