<?xml version="1.0" encoding="utf-8"?>
<!-- Generator: Adobe Illustrator 16.0.0, SVG Export Plug-In . SVG Version: 6.00 Build 0)  -->
<!DOCTYPE svg PUBLIC "-//W3C//DTD SVG 1.1//EN" "http://www.w3.org/Graphics/SVG/1.1/DTD/svg11.dtd">
<svg version="1.1" id="Layer_1" xmlns="http://www.w3.org/2000/svg" xmlns:xlink="http://www.w3.org/1999/xlink" x="0px" y="0px"
	 width="64px" height="64px" viewBox="0 0 64 64" enable-background="new 0 0 64 64" xml:space="preserve">
<path d="M32,0C14.328,0,0,14.328,0,32s14.328,32,32,32s32-14.328,32-32S49.672,0,32,0z M46.891,23.504l-1.703,20.434
	c-0.246,2.926-2.738,5.219-5.672,5.219H26.262c-2.934,0-5.426-2.293-5.672-5.219l-1.699-20.434c-1.34-0.23-2.355-1.391-2.355-2.793
	c0-1.57,1.273-2.844,2.844-2.844h9.242v-0.711c0-0.785,0.637-1.422,1.422-1.422h5.691c0.785,0,1.422,0.637,1.422,1.422v0.711h9.242
	c1.574,0,2.848,1.273,2.848,2.844C49.246,22.113,48.227,23.273,46.891,23.504z"/>
</svg>
