<?xml version="1.0" encoding="utf-8"?>
<!-- Generator: Adobe Illustrator 16.0.0, SVG Export Plug-In . SVG Version: 6.00 Build 0)  -->
<!DOCTYPE svg PUBLIC "-//W3C//DTD SVG 1.1//EN" "http://www.w3.org/Graphics/SVG/1.1/DTD/svg11.dtd">
<svg version="1.1" id="Layer_1" xmlns="http://www.w3.org/2000/svg" xmlns:xlink="http://www.w3.org/1999/xlink" x="0px" y="0px"
	 width="64px" height="64px" viewBox="0 0 64 64" enable-background="new 0 0 64 64" xml:space="preserve">
<path d="M32,0C14.328,0,0,14.328,0,32s14.328,32,32,32s32-14.328,32-32S49.672,0,32,0z M26.867,45.211l-9.156,3.063
	c-1.227,0.41-2.395-0.758-1.984-1.984l3.063-9.156l14.922-14.922l8.078,8.078L26.867,45.211z M47.523,24.555l-3.723,3.723
	l-8.078-8.078l3.723-3.723c1.109-1.109,2.91-1.109,4.02,0l4.059,4.059C48.633,21.645,48.633,23.445,47.523,24.555z"/>
</svg>
