<?xml version="1.0" encoding="utf-8"?>
<!-- Generator: Adobe Illustrator 16.0.0, SVG Export Plug-In . SVG Version: 6.00 Build 0)  -->
<!DOCTYPE svg PUBLIC "-//W3C//DTD SVG 1.1//EN" "http://www.w3.org/Graphics/SVG/1.1/DTD/svg11.dtd">
<svg version="1.1" id="Layer_1" xmlns="http://www.w3.org/2000/svg" xmlns:xlink="http://www.w3.org/1999/xlink" x="0px" y="0px"
	 width="64px" height="64px" viewBox="0 0 64 64" enable-background="new 0 0 64 64" xml:space="preserve">
<g>
	<path fill="#FC00FF" d="M26.867,45.211l-9.156,3.063c-1.227,0.41-2.395-0.758-1.984-1.983l3.063-9.156l14.922-14.922l8.078,8.078
		L26.867,45.211z M47.523,24.555L43.8,28.278L35.723,20.2l3.723-3.723c1.109-1.109,2.91-1.109,4.02,0l4.059,4.059
		C48.633,21.645,48.633,23.445,47.523,24.555z"/>
</g>
<g>
	<path fill="#FC00FF" d="M32,3c15.99,0,29,13.009,29,29c0,15.99-13.01,29-29,29C16.009,61,3,47.99,3,32C3,16.009,16.009,3,32,3
		 M32,0C14.327,0,0,14.327,0,32c0,17.673,14.327,32,32,32c17.674,0,32-14.327,32-32C64,14.327,49.674,0,32,0L32,0z"/>
</g>
</svg>
